<svg width="215" height="40" viewBox="0 0 215 40" fill="none" xmlns="http://www.w3.org/2000/svg">
  <g transform="translate(2, 2) scale(1.28)">
    <rect x="5" y="11" width="3.5" height="3.5" fill="#000000" rx="0.5"/>
    <rect x="9.5" y="11" width="3.5" height="3.5" fill="#000000" rx="0.5"/>
    <rect x="14" y="11" width="3.5" height="3.5" fill="#000000" rx="0.5"/>
    <rect x="9.5" y="6.5" width="3.5" height="3.5" fill="#000000" rx="0.5"/>
    <rect x="14" y="6.5" width="3.5" height="3.5" fill="#000000" rx="0.5"/>
    <rect x="18.5" y="11" width="3.5" height="3.5" fill="#000000" rx="0.5"/>
    <path d="M26.5 14.5c-.5-.4-1.6-.7-2.7-.4-.3-1.8-1.5-3.3-1.5-3.3s-.7 1.4-.4 2.8c-1.3.4-3.1.2-4.4.2H1.5c-.3 1.5.2 6.5 4.5 9.2 4.1 2.5 10.3 2.5 14.7 0 3.7-2.1 5.6-5.8 5.8-8.5z" fill="#000000"/>
  </g>
  <text x="52" y="28" font-family="Inter, -apple-system, BlinkMacSystemFont, 'Segoe UI', Roboto, sans-serif" font-size="24" font-weight="700" letter-spacing="-0.02em" fill="#000000">Docker</text>
</svg>