<svg width="190" height="40" viewBox="0 0 190 40" fill="none" xmlns="http://www.w3.org/2000/svg">
  <g transform="translate(2, 2) scale(1.28)">
    <path d="M2 10h6v2H2v-2zm-1 4h5v2H1v-2zm3 4h4v2H4v-2z" fill="#000000" opacity="0.6"/>
    <path d="M12 14c0-4.5 3-7 7-7 3.5 0 6 2 6.8 5h-3.2c-.6-1.5-1.8-2.5-3.6-2.5-2.5 0-4.2 1.8-4.2 4.5s1.7 4.5 4.2 4.5c1.8 0 3-1 3.5-2.3h-3.7V14H26v8h-2.5v-2c-1 1.5-2.7 2.3-4.5 2.3-4 0-7-2.5-7-7z" fill="#000000"/>
  </g>
  <text x="50" y="28" font-family="Inter, -apple-system, BlinkMacSystemFont, 'Segoe UI', Roboto, sans-serif" font-size="24" font-weight="700" letter-spacing="-0.02em" fill="#000000">Go</text>
</svg>