<svg width="215" height="40" viewBox="0 0 215 40" fill="none" xmlns="http://www.w3.org/2000/svg">
  <g transform="translate(2, 2) scale(1.28)">
    <path d="M13.8 2c-4.2 0-3.9 1.8-3.9 1.8l0 1.9h4v.5h-5.6c-2.2 0-3.8 1.3-3.8 3.8 0 2.4 1.4 3.7 3.3 3.7h2v-2.8c0-2.2 1.8-3.7 4-3.7h3.9v-1.4c0-2.2-1.9-3.8-3.9-3.8zm-2.2 1.2c.6 0 1.2.5 1.2 1.2 0 .6-.5 1.2-1.2 1.2-.6 0-1.2-.5-1.2-1.2 0-.6.5-1.2 1.2-1.2z" fill="#000000"/>
    <path d="M14.2 26c4.2 0 3.9-1.8 3.9-1.8l0-1.9h-4v-.5h5.6c2.2 0 3.8-1.3 3.8-3.8 0-2.4-1.4-3.7-3.3-3.7h-2v2.8c0 2.2-1.8 3.7-4 3.7h-3.9v1.4c0 2.2 1.9 3.8 3.9 3.8zm2.2-1.2c-.6 0-1.2-.5-1.2-1.2 0-.6.5-1.2 1.2-1.2.6 0 1.2.5 1.2 1.2 0 .6-.5 1.2-1.2 1.2z" fill="#000000"/>
  </g>
  <text x="52" y="28" font-family="Inter, -apple-system, BlinkMacSystemFont, 'Segoe UI', Roboto, sans-serif" font-size="24" font-weight="700" letter-spacing="-0.02em" fill="#000000">Python</text>
</svg>